# xmcd
#
# Track frame offsets: 
#        150
#        19859
#        37778
#        53099
#        86422
#        104009
#        122766
#        149764
#        170449
#        189838
#        220321
#
# Disc length: 3165 seconds
#
# Revision: 0
# Processed by: cddbd v1.5.1PL0 Copyright (c) Steve Scherf et al.
# Submitted via: ExactAudioCopy v0.95a5
#
DISCID=950c5b0b
DTITLE=Greyhound Blues Band - Take It Or Leave It
DYEAR=2000
DGENRE=Blues
TTITLE0=Young Fashion Ways
TTITLE1=Lightning Bug
TTITLE2=Honey Hush
TTITLE3=Juice Head Baby
TTITLE4=Reconsider Baby
TTITLE5=Blues Town
TTITLE6=Can't Getta Sleeping
TTITLE7=Bright Lights, Big City
TTITLE8=Memphis Tennessee
TTITLE9=I Love To Sing The Blues
TTITLE10=You Can Help Yourself
EXTD=
EXTT0=
EXTT1=
EXTT2=
EXTT3=
EXTT4=
EXTT5=
EXTT6=
EXTT7=
EXTT8=
EXTT9=
EXTT10=
PLAYORDER=
